<?xml version="1.0" encoding="UTF-8"?>
<svg xmlns="http://www.w3.org/2000/svg" xmlns:xlink="http://www.w3.org/1999/xlink" width="120px" height="120px" viewBox="0 0 120 120" version="1.1">
<g id="surface1">
<path style=" stroke:none;fill-rule:nonzero;fill:rgb(18.431373%,18.039216%,25.490196%);fill-opacity:1;" d="M 85.53125 85.5 L 55.53125 85.5 L 55.53125 44.898438 L 81.472656 59.109375 Z M 85.53125 85.5 "/>
<path style=" stroke:none;fill-rule:nonzero;fill:rgb(100%,71.372549%,71.372549%);fill-opacity:1;" d="M 80.550781 58.855469 C 80.550781 69.613281 71.832031 78.335938 61.074219 78.335938 C 50.316406 78.335938 41.597656 69.613281 41.597656 58.855469 C 41.597656 48.101562 50.316406 39.378906 61.074219 39.378906 C 71.832031 39.378906 80.550781 48.101562 80.550781 58.855469 Z M 80.550781 58.855469 "/>
<path style=" stroke:none;fill-rule:nonzero;fill:rgb(100%,71.372549%,71.372549%);fill-opacity:1;" d="M 49.890625 81.214844 L 49.011719 72.320312 L 66.585938 69.035156 L 76.960938 94.296875 L 58.914062 115.050781 L 46.058594 89.785156 Z M 49.890625 81.214844 "/>
<path style=" stroke:none;fill-rule:nonzero;fill:rgb(42.352941%,38.823529%,100%);fill-opacity:1;" d="M 103.089844 101.75 C 102.871094 101.976562 102.648438 102.203125 102.425781 102.425781 C 101.71875 103.132812 100.996094 103.824219 100.257812 104.488281 C 89.207031 114.515625 75.023438 120 60 120 C 46.148438 120 33.011719 115.335938 22.386719 106.753906 C 22.378906 106.75 22.375 106.746094 22.371094 106.738281 C 22.046875 106.480469 21.730469 106.214844 21.410156 105.949219 C 21.46875 105.785156 21.527344 105.625 21.589844 105.46875 C 25.007812 96.5625 31.753906 92.207031 35.851562 90.300781 C 37.882812 89.355469 39.257812 89.011719 39.257812 89.011719 L 44.070312 80.351562 L 47.453125 86.667969 L 49.949219 91.320312 L 60.183594 110.421875 L 69.015625 88.433594 L 71.75 81.617188 L 72.453125 79.871094 L 75.789062 82.464844 L 78.949219 84.921875 L 85.304688 86.324219 L 90.464844 87.464844 L 97.46875 89.011719 C 100.304688 91.320312 102.027344 95.710938 102.988281 101.164062 C 103.027344 101.355469 103.058594 101.554688 103.089844 101.75 Z M 103.089844 101.75 "/>
<path style=" stroke:none;fill-rule:nonzero;fill:rgb(18.431373%,18.039216%,25.490196%);fill-opacity:1;" d="M 50.828125 36.722656 C 53.199219 32.738281 57.558594 30.003906 62.179688 29.601562 C 66.800781 29.195312 71.5625 31.136719 74.589844 34.648438 C 76.394531 36.742188 77.578125 39.308594 79.335938 41.441406 C 83.117188 46.03125 89.570312 48.714844 91.222656 54.425781 C 91.941406 56.921875 91.582031 59.582031 91.21875 62.152344 C 90.90625 64.355469 90.59375 66.554688 90.28125 68.757812 C 90.039062 70.472656 89.804688 72.28125 90.445312 73.886719 C 91.199219 75.773438 93.003906 77.007812 94.171875 78.671875 C 96.15625 81.5 96.011719 85.640625 93.832031 88.324219 C 92.890625 89.488281 91.636719 90.367188 90.644531 91.492188 C 89.65625 92.617188 88.921875 94.152344 89.335938 95.59375 C 90.128906 98.351562 94.457031 99.015625 94.929688 101.847656 C 95.175781 103.292969 94.175781 104.738281 92.863281 105.402344 C 91.554688 106.0625 90.011719 106.082031 88.554688 105.90625 C 83.015625 105.230469 77.886719 101.773438 75.191406 96.886719 C 72.496094 92.003906 72.300781 85.820312 74.679688 80.773438 C 76.636719 76.628906 80.269531 72.96875 80.230469 68.386719 C 80.210938 65.890625 79.066406 63.558594 77.945312 61.328125 C 75.652344 56.761719 73.363281 52.195312 71.070312 47.628906 C 69.84375 45.179688 68.417969 42.546875 65.890625 41.496094 C 63.9375 40.683594 61.722656 40.996094 59.632812 41.328125 C 57.542969 41.660156 55.332031 41.984375 53.371094 41.1875 C 51.414062 40.390625 49.933594 38.019531 50.867188 36.121094 "/>
<path style=" stroke:none;fill-rule:nonzero;fill:rgb(18.431373%,18.039216%,25.490196%);fill-opacity:1;" d="M 54.242188 36.929688 C 50.480469 35.691406 46.257812 37.679688 43.710938 40.714844 C 41.164062 43.75 39.925781 47.640625 38.75 51.421875 C 38.074219 53.589844 37.402344 55.757812 36.726562 57.921875 C 36.09375 59.960938 35.457031 62 34.824219 64.039062 C 34.078125 66.4375 33.324219 68.984375 33.9375 71.417969 C 34.378906 73.179688 35.519531 74.777344 35.542969 76.589844 C 35.570312 78.488281 34.382812 80.152344 33.339844 81.738281 C 32.300781 83.324219 31.324219 85.207031 31.820312 87.035156 C 32.574219 89.820312 36.445312 91.351562 36.230469 94.226562 C 36.160156 95.1875 35.605469 96.074219 35.617188 97.035156 C 35.628906 98.261719 36.585938 99.320312 37.710938 99.808594 C 38.835938 100.296875 40.097656 100.320312 41.324219 100.300781 C 45.078125 100.234375 48.828125 99.789062 52.492188 98.972656 C 53.90625 98.65625 55.339844 98.269531 56.511719 97.429688 C 57.6875 96.585938 58.5625 95.191406 58.410156 93.753906 C 58.171875 91.511719 55.765625 90.242188 54.550781 88.347656 C 53.355469 86.484375 53.382812 84.125 52.871094 81.972656 C 52.160156 79.015625 50.414062 76.433594 49.105469 73.691406 C 44.171875 63.378906 45.898438 50.234375 53.324219 41.546875 C 53.980469 40.777344 54.699219 40.003906 54.972656 39.03125 C 55.246094 38.058594 54.894531 36.820312 53.941406 36.480469 "/>
<path style=" stroke:none;fill-rule:nonzero;fill:rgb(24.705882%,23.921569%,33.72549%);fill-opacity:1;" d="M 102.425781 17.574219 C 91.09375 6.242188 76.027344 0 60 0 C 43.972656 0 28.90625 6.242188 17.574219 17.574219 C 6.242188 28.90625 0 43.972656 0 60 C 0 74.628906 5.199219 88.457031 14.726562 99.375 C 15.636719 100.421875 16.585938 101.4375 17.574219 102.425781 C 17.804688 102.660156 18.039062 102.890625 18.277344 103.117188 C 18.910156 103.726562 19.550781 104.324219 20.207031 104.90625 C 20.601562 105.257812 21.003906 105.605469 21.410156 105.949219 C 21.730469 106.214844 22.046875 106.480469 22.371094 106.738281 C 22.375 106.746094 22.378906 106.75 22.386719 106.753906 C 33.011719 115.335938 46.148438 120 60 120 C 75.023438 120 89.207031 114.515625 100.257812 104.488281 C 100.996094 103.824219 101.71875 103.132812 102.425781 102.425781 C 102.648438 102.203125 102.871094 101.976562 103.089844 101.75 C 103.699219 101.121094 104.292969 100.484375 104.871094 99.835938 C 114.652344 88.847656 120 74.835938 120 60 C 120 43.972656 113.757812 28.90625 102.425781 17.574219 Z M 104.722656 99.273438 C 104.160156 99.914062 103.582031 100.546875 102.988281 101.164062 C 102.070312 102.121094 101.121094 103.050781 100.140625 103.945312 C 99.765625 104.289062 99.390625 104.625 99.007812 104.953125 C 95.160156 108.304688 90.871094 111.164062 86.25 113.441406 C 84.628906 114.242188 82.96875 114.972656 81.265625 115.625 C 74.660156 118.160156 67.488281 119.550781 60 119.550781 C 52.773438 119.550781 45.84375 118.253906 39.429688 115.886719 C 36.796875 114.914062 34.253906 113.761719 31.8125 112.445312 C 31.453125 112.25 31.097656 112.054688 30.742188 111.851562 C 28.878906 110.796875 27.078125 109.644531 25.347656 108.398438 C 24.054688 107.472656 22.800781 106.496094 21.589844 105.46875 C 21.164062 105.109375 20.746094 104.746094 20.332031 104.371094 C 19.660156 103.773438 19 103.160156 18.359375 102.527344 C 17.140625 101.335938 15.976562 100.089844 14.863281 98.800781 C 5.886719 88.371094 0.449219 74.808594 0.449219 60 C 0.449219 27.164062 27.164062 0.449219 60 0.449219 C 92.835938 0.449219 119.550781 27.164062 119.550781 60 C 119.550781 75.035156 113.949219 88.785156 104.722656 99.273438 Z M 104.722656 99.273438 "/>
</g>
</svg>
