<?xml version="1.0" encoding="UTF-8"?>
<svg xmlns="http://www.w3.org/2000/svg" xmlns:xlink="http://www.w3.org/1999/xlink" width="120px" height="120px" viewBox="0 0 120 120" version="1.1">
<g id="surface1">
<path style=" stroke:none;fill-rule:nonzero;fill:rgb(100%,71.372549%,71.372549%);fill-opacity:1;" d="M 80.550781 58.855469 C 80.550781 69.613281 71.832031 78.335938 61.074219 78.335938 C 50.316406 78.335938 41.597656 69.613281 41.597656 58.855469 C 41.597656 48.101562 50.316406 39.378906 61.074219 39.378906 C 71.832031 39.378906 80.550781 48.101562 80.550781 58.855469 Z M 80.550781 58.855469 "/>
<path style=" stroke:none;fill-rule:nonzero;fill:rgb(100%,71.372549%,71.372549%);fill-opacity:1;" d="M 49.890625 81.214844 L 49.011719 72.320312 L 66.582031 69.035156 L 76.960938 94.296875 L 58.914062 115.050781 L 46.058594 89.785156 Z M 49.890625 81.214844 "/>
<path style=" stroke:none;fill-rule:nonzero;fill:rgb(18.431373%,18.039216%,25.490196%);fill-opacity:1;" d="M 48.730469 76.773438 L 52.574219 77.640625 C 52.574219 77.640625 49.550781 68.066406 50.578125 67.152344 C 51.601562 66.238281 54.113281 67.675781 54.113281 67.675781 L 56.753906 70.636719 L 59.96875 67.363281 C 59.96875 67.363281 63.460938 63.019531 64.824219 61.800781 C 66.191406 60.582031 64 56.058594 64 56.058594 C 64 56.058594 84.273438 50.59375 76.730469 40.757812 C 76.730469 40.757812 72.304688 33.046875 70.867188 35.558594 C 69.425781 38.070312 67.707031 34.082031 67.707031 34.082031 L 62.460938 35.078125 C 62.460938 35.078125 52.109375 28.972656 42.285156 42.03125 C 32.457031 55.089844 48.730469 76.773438 48.730469 76.773438 Z M 48.730469 76.773438 "/>
<path style=" stroke:none;fill-rule:nonzero;fill:rgb(42.352941%,38.823529%,100%);fill-opacity:1;" d="M 97.707031 106.679688 C 87.0625 115.308594 73.890625 120 60 120 C 47.3125 120 35.230469 116.089844 25.121094 108.839844 C 25.140625 108.648438 25.160156 108.460938 25.175781 108.273438 C 25.445312 105.34375 25.683594 102.492188 25.839844 100.128906 C 26.453125 90.949219 47.863281 84.832031 47.863281 84.832031 C 47.863281 84.832031 47.960938 84.929688 48.15625 85.097656 C 49.339844 86.136719 54.136719 89.898438 62.550781 90.949219 C 70.050781 91.890625 72.519531 87.4375 73.269531 85.304688 C 73.492188 84.65625 73.5625 84.21875 73.5625 84.21875 L 95.585938 94.621094 C 97.023438 96.675781 97.585938 101.09375 97.695312 106.0625 C 97.699219 106.269531 97.703125 106.472656 97.707031 106.679688 Z M 97.707031 106.679688 "/>
<path style=" stroke:none;fill-rule:nonzero;fill:rgb(24.705882%,23.921569%,33.72549%);fill-opacity:1;" d="M 102.425781 17.574219 C 91.09375 6.242188 76.027344 0 60 0 C 43.972656 0 28.90625 6.242188 17.574219 17.574219 C 6.242188 28.90625 0 43.972656 0 60 C 0 74.628906 5.199219 88.457031 14.726562 99.378906 C 15.636719 100.421875 16.585938 101.4375 17.574219 102.425781 C 17.804688 102.660156 18.039062 102.890625 18.277344 103.117188 C 18.910156 103.726562 19.550781 104.324219 20.207031 104.90625 C 20.605469 105.261719 21.003906 105.605469 21.410156 105.945312 C 21.730469 106.214844 22.046875 106.480469 22.367188 106.738281 C 22.375 106.746094 22.378906 106.75 22.386719 106.753906 C 23.28125 107.476562 24.195312 108.171875 25.121094 108.839844 C 35.230469 116.089844 47.3125 120 60 120 C 73.890625 120 87.0625 115.308594 97.707031 106.679688 C 98.574219 105.976562 99.425781 105.246094 100.257812 104.488281 C 100.996094 103.824219 101.71875 103.132812 102.425781 102.425781 C 102.648438 102.203125 102.871094 101.976562 103.09375 101.75 C 103.703125 101.125 104.292969 100.484375 104.867188 99.835938 C 114.652344 88.847656 120 74.835938 120 60 C 120 43.972656 113.757812 28.90625 102.425781 17.574219 Z M 104.722656 99.273438 C 104.160156 99.917969 103.582031 100.546875 102.988281 101.164062 C 102.070312 102.121094 101.121094 103.050781 100.140625 103.949219 C 99.765625 104.289062 99.390625 104.621094 99.007812 104.957031 C 98.574219 105.332031 98.136719 105.699219 97.695312 106.0625 C 94.191406 108.941406 90.355469 111.421875 86.25 113.441406 C 84.628906 114.242188 82.964844 114.972656 81.265625 115.625 C 74.660156 118.160156 67.488281 119.550781 60 119.550781 C 52.773438 119.550781 45.84375 118.253906 39.429688 115.886719 C 36.800781 114.917969 34.253906 113.761719 31.8125 112.445312 C 31.453125 112.25 31.097656 112.050781 30.742188 111.851562 C 28.878906 110.796875 27.078125 109.644531 25.347656 108.398438 C 25.292969 108.359375 25.230469 108.316406 25.175781 108.273438 C 23.945312 107.386719 22.746094 106.449219 21.589844 105.464844 C 21.164062 105.109375 20.746094 104.746094 20.332031 104.371094 C 19.660156 103.773438 19 103.160156 18.359375 102.527344 C 17.140625 101.335938 15.976562 100.09375 14.863281 98.796875 C 5.886719 88.367188 0.449219 74.808594 0.449219 60 C 0.449219 27.164062 27.164062 0.449219 60 0.449219 C 92.835938 0.449219 119.550781 27.164062 119.550781 60 C 119.550781 75.035156 113.949219 88.785156 104.722656 99.273438 Z M 104.722656 99.273438 "/>
</g>
</svg>
